<?xml version="1.0" encoding="UTF-8"?>
<!DOCTYPE svg PUBLIC "-//W3C//DTD SVG 1.1//EN" "http://www.w3.org/Graphics/SVG/1.1/DTD/svg11.dtd">
<!-- Creator: CorelDRAW X8 -->
<svg xmlns="http://www.w3.org/2000/svg" xml:space="preserve" width="92.287mm" height="92.287mm" version="1.1" style="shape-rendering:geometricPrecision; text-rendering:geometricPrecision; image-rendering:optimizeQuality; fill-rule:evenodd; clip-rule:evenodd"
viewBox="0 0 9229 9229"
 xmlns:xlink="http://www.w3.org/1999/xlink">
 <defs>
  <style type="text/css">
   <![CDATA[
    .str0 {stroke:black;stroke-width:7.62}
    .fil0 {fill:black}
   ]]>
  </style>
 </defs>
 <g id="Слой_x0020_1">
  <metadata id="CorelCorpID_0Corel-Layer"/>
  <path class="fil0 str0" d="M4614 0c2549,0 4615,2066 4615,4614 0,2549 -2066,4615 -4615,4615 -2548,0 -4614,-2066 -4614,-4615 0,-2548 2066,-4614 4614,-4614zm2910 1705c-745,-744 -1773,-1205 -2910,-1205 -1136,0 -2164,461 -2909,1205 -744,745 -1205,1773 -1205,2909 0,1137 461,2165 1205,2910 745,744 1773,1205 2909,1205 1137,0 2165,-461 2910,-1205 744,-745 1205,-1773 1205,-2910 0,-1136 -461,-2164 -1205,-2909zm-1818 1787l-870 0 0 1378 870 0 0 -1378zm-3294 1378l869 0 0 -1378 -851 0 -18 13 0 1365zm719 345l-284 0 -283 0 0 396 0 396 283 0 284 0 0 -396 0 -396zm150 421l-100 0 0 421 -309 0 0 119 409 0 0 -540zm-100 -50l100 0 0 -566 -409 0 0 145 309 0 0 421zm-769 0l102 0 0 -421 25 0 283 0 0 -145 -410 0 0 566zm102 50l-102 0 0 540 410 0 0 -119 -308 0 0 -421zm3065 -421l-284 0 -283 0 0 396 0 396 283 0 284 0 0 -396 0 -396zm127 421l-77 0 0 421 -309 0 0 119 386 0 0 -540zm-77 -50l77 0 0 -566 -386 0 0 145 309 0 0 421zm-793 0l126 0 0 -421 25 0 283 0 0 -145 -434 0 0 566zm126 50l-126 0 0 540 434 0 0 -119 -308 0 0 -421zm1679 -616l0 92 479 0 0 233 32 -5 0 -320 -511 0zm0 779l0 82 511 -213 0 -278 -32 5 0 233c-160,57 -320,114 -479,171zm-35 -41c1,0 2,0 3,-1l461 -164 0 -431 -454 0 -530 0 0 782 520 -186zm-651 -197l81 -10 0 -439 25 0 530 0 0 -92 -636 0 0 541zm81 40l-81 11 0 554 636 -264 0 -85 -555 197 0 -413zm-1994 -3622c55,-42 134,-30 175,25 5,7 9,14 13,21l3521 1977c59,33 81,108 47,167 -28,51 -87,74 -140,59l-306 -70 0 1769c0,56 -45,100 -100,100 -55,0 -100,-44 -100,-100l0 -96 -1178 489c-6,3 -12,5 -19,6l0 124c0,69 -56,124 -124,124 -69,0 -125,-55 -125,-124l0 -124 -870 0 0 124c0,41 -33,75 -75,75 -41,0 -74,-34 -74,-75l0 -2958 -1256 0 0 2958c0,41 -34,75 -75,75 -41,0 -75,-34 -75,-75l0 -124 -869 0 0 124c0,69 -56,125 -125,125 -69,0 -125,-56 -125,-125l0 -2758 -269 201c-56,41 -134,30 -175,-26 -41,-55 -30,-133 25,-175l2299 -1713zm61 266l-1471 1097 2942 0 -1471 -1097zm1852 1381l0 1244 1197 0 0 -758 -755 -174c-19,-3 -37,-10 -53,-23l-389 -289z"/>
 </g>
</svg>
