<?xml version="1.0" encoding="UTF-8"?>
<!DOCTYPE svg PUBLIC "-//W3C//DTD SVG 1.1//EN" "http://www.w3.org/Graphics/SVG/1.1/DTD/svg11.dtd">
<!-- Creator: CorelDRAW X8 -->
<svg xmlns="http://www.w3.org/2000/svg" xml:space="preserve" width="92.287mm" height="92.287mm" version="1.1" style="shape-rendering:geometricPrecision; text-rendering:geometricPrecision; image-rendering:optimizeQuality; fill-rule:evenodd; clip-rule:evenodd"
viewBox="0 0 9229 9229"
 xmlns:xlink="http://www.w3.org/1999/xlink">
 <defs>
  <style type="text/css">
   <![CDATA[
    .fil0 {fill:black}
   ]]>
  </style>
 </defs>
 <g id="Слой_x0020_1">
  <metadata id="CorelCorpID_0Corel-Layer"/>
  <path class="fil0" d="M4614 0c2549,0 4615,2066 4615,4614 0,2549 -2066,4615 -4615,4615 -2548,0 -4614,-2066 -4614,-4615 0,-2548 2066,-4614 4614,-4614zm2910 1705c-745,-744 -1773,-1205 -2910,-1205 -1136,0 -2164,461 -2909,1205 -744,745 -1205,1773 -1205,2909 0,1137 461,2165 1205,2910 745,744 1773,1205 2909,1205 1137,0 2165,-461 2910,-1205 744,-745 1205,-1773 1205,-2910 0,-1136 -461,-2164 -1205,-2909zm-1187 3065l804 14 -89 122 -829 -19 114 -117 1 -210 -1 210zm-3333 -2793l-1177 186 -108 17 11 402 677 129 2538 2079 88 2 625 -33 0 0 254 4 17 16 -1970 2144 -323 105 7 402 126 23 378 -146 118 -138 879 141 3 395 150 27 331 -174 1829 -2723 450 -42 3 -266 -1830 -6 -1 -1 -2249 -2356 -698 -207 -128 20zm-395 394l401 -55 2 99 258 62 -473 59 -188 -165zm2457 2155l-1 -1 -151 -133 613 -2 133 129 1 1 -4 0 -591 6zm-187 -164l-159 -140 626 -8 149 144 -616 4zm-203 -178l-163 -143 639 -15 153 148 -629 10zm-216 -190l-166 -145 652 -23 156 151 -642 17zm-231 -202l-169 -148 665 -33 159 155 -655 26zm-247 -216l-172 -152 678 -42 164 158 -670 36zm-264 -232l-176 -155 692 -54 167 163 -683 46zm-284 -249l-180 -158 706 -68 171 167 -697 59zm-306 -269l-184 -161 720 -83 176 171 -712 73zm3055 2108l834 21 -113 155 -848 -28 127 -148zm-175 204l853 31 -115 159 -867 -39 129 -151zm-186 217l873 43 -118 162 -887 -51 132 -154zm-199 232l894 55 -120 166 -909 -64 135 -157zm-213 248l917 70 -124 170 -930 -80 137 -160zm-228 265l939 87 -126 174 -953 -97 140 -164zm-245 286l963 105 -130 179 -976 -117 143 -167zm-264 308l988 127 -133 183 -1001 -140 146 -170zm1416 -2089l68 -75 100 2 -100 -1 -68 74zm-9 -84l9 9 -1 -1 -8 -8z"/>
 </g>
</svg>
