<?xml version="1.0" encoding="UTF-8"?>
<!DOCTYPE svg PUBLIC "-//W3C//DTD SVG 1.1//EN" "http://www.w3.org/Graphics/SVG/1.1/DTD/svg11.dtd">
<svg xmlns="http://www.w3.org/2000/svg"  width="138.515mm" height="42.3332mm"  viewBox="0 0 13851 4233">
  <path class="logo-svg" d="M10114 2843l0 -1601c0,-276 -56,-480 -167,-614 -110,-134 -281,-201 -510,-201 -124,0 -240,26 -346,76 -105,51 -195,122 -268,215 -53,71 -92,155 -116,250 -23,95 -35,251 -35,469l0 1406 -451 0 0 -1601c0,-276 -55,-480 -166,-614 -110,-134 -281,-201 -510,-201 -125,0 -241,26 -349,76 -107,51 -198,122 -272,215 -50,70 -88,151 -110,241 -23,91 -35,251 -35,478l0 1406 -450 0 0 -2720 456 0 0 420c113,-174 248,-304 404,-389 156,-86 337,-128 541,-128 220,0 407,46 561,141 155,94 271,232 351,412 117,-186 255,-325 414,-416 160,-92 345,-137 555,-137 303,0 539,85 710,255 170,171 255,408 255,711l0 1851 -462 0zm-4257 1351l0 -540c0,-93 -19,-162 -57,-207 -37,-45 -94,-68 -172,-68 -42,0 -81,9 -116,26 -36,17 -66,41 -91,72 -18,24 -31,52 -39,85 -8,32 -12,84 -12,158l0 474 -152 0 0 -540c0,-93 -19,-162 -56,-207 -37,-45 -95,-68 -172,-68 -42,0 -82,9 -118,26 -36,17 -67,41 -92,72 -17,24 -29,51 -37,82 -8,30 -12,84 -12,161l0 474 -151 0 0 -917 154 0 0 141c37,-59 83,-102 136,-131 52,-29 113,-43 182,-43 74,0 138,15 190,47 52,32 91,79 118,139 39,-62 86,-109 140,-140 54,-31 116,-46 187,-46 102,0 182,29 239,86 58,57 87,138 87,240l0 624 -156 0zm1109 -562c-6,-81 -33,-143 -81,-187 -48,-44 -115,-66 -199,-66 -76,0 -140,23 -191,69 -50,46 -80,107 -88,184l559 0zm168 127l-727 0 0 14c0,98 28,178 84,238 56,61 130,91 220,91 61,0 117,-16 166,-50 50,-33 94,-82 132,-149l119 80c-46,83 -105,145 -176,187 -72,42 -155,63 -249,63 -140,0 -253,-46 -339,-138 -86,-92 -129,-213 -129,-363 0,-144 42,-261 128,-353 86,-91 195,-137 330,-137 135,0 243,43 322,130 79,87 119,206 119,356l0 31zm255 -353l-168 0 0 -129 168 0 0 -370 160 0 0 370 169 0 0 129 -169 0 0 788 -160 0 0 -788zm1203 339c0,-104 -29,-187 -85,-250 -56,-64 -130,-95 -221,-95 -94,0 -168,29 -220,87 -53,58 -80,139 -80,244 0,111 27,196 80,256 53,60 129,90 226,90 93,0 167,-29 220,-87 53,-59 80,-141 80,-245zm152 -468l0 917 -152 0 0 -166c-37,67 -84,118 -141,153 -57,35 -121,52 -192,52 -131,0 -238,-45 -318,-135 -81,-91 -121,-211 -121,-360 0,-151 39,-271 117,-360 78,-90 183,-134 314,-134 77,0 143,17 200,51 56,35 102,87 137,155l0 -173 156 0zm316 917l0 -1554 160 0 0 1554 -160 0zm491 0l0 -1554 160 0 0 1554 -160 0zm3125 -2751l1175 0 0 95c0,449 -127,803 -381,1062 -254,259 -602,389 -1041,389 -135,0 -262,-14 -383,-43 -121,-28 -234,-70 -336,-125 -234,-128 -414,-305 -541,-532 -127,-226 -191,-483 -191,-771 0,-237 38,-452 114,-643 76,-192 190,-360 344,-505 128,-122 277,-215 447,-276 170,-63 358,-94 565,-94 274,0 511,50 712,149 201,99 368,248 500,448l-284 228c-103,-173 -230,-302 -384,-389 -152,-86 -330,-129 -532,-129 -331,0 -600,111 -806,335 -206,223 -309,515 -309,876 0,340 105,619 314,837 209,218 476,327 800,327 286,0 524,-86 713,-260 190,-173 296,-399 317,-677l-813 0 0 -302zm-8075 1400l-1384 -2703 576 0 899 1899 900 -1899 576 0 -1376 2703 -191 0zm-2568 -2567c-519,0 -990,212 -1332,553 -342,342 -554,814 -554,1332 0,518 212,990 554,1332 342,341 813,553 1332,553l2358 0 0 147 -2358 0c-559,0 -1068,-228 -1436,-597 -368,-368 -597,-876 -597,-1435 0,-559 229,-1067 597,-1435 368,-369 877,-597 1436,-597l0 147zm352 523c-875,0 -1592,598 -1592,1330 0,364 177,695 463,936 289,244 689,395 1129,395l2006 0 0 147 -2006 0c-475,0 -909,-165 -1223,-430 -318,-268 -516,-639 -516,-1048 0,-812 783,-1477 1739,-1477l0 147zm130 463l1261 1766 -1320 0c-287,0 -549,-100 -739,-260 -193,-163 -313,-389 -313,-639 0,-249 120,-475 313,-638 190,-160 452,-260 739,-260l37 0 22 31zm976 1619l-1072 -1502c-237,8 -451,92 -607,224 -161,136 -261,322 -261,526 0,205 100,391 261,527 165,139 392,225 644,225l1035 0z"/>
</svg>
