<?xml version="1.0" encoding="UTF-8"?>
<!DOCTYPE svg PUBLIC "-//W3C//DTD SVG 1.1//EN" "http://www.w3.org/Graphics/SVG/1.1/DTD/svg11.dtd">
<!-- Creator: CorelDRAW X8 -->
<svg xmlns="http://www.w3.org/2000/svg" xml:space="preserve" width="92.287mm" height="92.287mm" version="1.1" style="shape-rendering:geometricPrecision; text-rendering:geometricPrecision; image-rendering:optimizeQuality; fill-rule:evenodd; clip-rule:evenodd"
viewBox="0 0 9229 9229"
 xmlns:xlink="http://www.w3.org/1999/xlink">
 <defs>
  <style type="text/css">
   <![CDATA[
    .fil0 {fill:black}
   ]]>
  </style>
 </defs>
 <g id="Слой_x0020_1">
  <metadata id="CorelCorpID_0Corel-Layer"/>
  <path class="fil0" d="M1365 3351l861 0 0 238 -861 0 0 -238zm5638 0l860 0 0 238 -860 0 0 -238zm-695 459c60,0 109,49 109,109 0,61 -49,110 -109,110 -61,0 -110,-49 -110,-110 0,-60 49,-109 110,-109zm-476 0c60,0 109,49 109,109 0,61 -49,110 -109,110 -61,0 -110,-49 -110,-110 0,-60 49,-109 110,-109zm-476 0c60,0 110,49 110,109 0,61 -50,110 -110,110 -61,0 -110,-49 -110,-110 0,-60 49,-109 110,-109zm-476 0c60,0 110,49 110,109 0,61 -50,110 -110,110 -61,0 -110,-49 -110,-110 0,-60 49,-109 110,-109zm-476 0c61,0 110,49 110,109 0,61 -49,110 -110,110 -61,0 -110,-49 -110,-110 0,-60 49,-109 110,-109zm-476 0c61,0 110,49 110,109 0,61 -49,110 -110,110 -61,0 -110,-49 -110,-110 0,-60 49,-109 110,-109zm-476 0c61,0 110,49 110,109 0,61 -49,110 -110,110 -61,0 -110,-49 -110,-110 0,-60 49,-109 110,-109zm-476 0c61,0 110,49 110,109 0,61 -49,110 -110,110 -61,0 -110,-49 -110,-110 0,-60 49,-109 110,-109zm3643 475l-4120 0 0 980 4120 0 0 -980zm-4759 -1629l903 0 0 64 138 0 0 -64 379 0 0 64 138 0 0 -64 380 0 0 64 137 0 0 -64 380 0 0 64 137 0 0 -64 380 0 0 64 137 0 0 -64 380 0 0 64 137 0 0 -64 380 0 0 64 137 0 0 -64 380 0 0 64 137 0 0 -64 904 0 0 670 -421 0 -25 0 0 288 446 0 0 531c0,77 -63,140 -140,140l-465 0 0 2288 -200 0 0 -1108 -4120 0 0 1108 -200 0 0 -2288 -300 0c-77,0 -139,-63 -139,-140l0 -531 391 0 0 -288 -391 0 0 -670zm2754 -2656c2549,0 4615,2066 4615,4614 0,2549 -2066,4615 -4615,4615 -2548,0 -4614,-2066 -4614,-4615 0,-2548 2066,-4614 4614,-4614zm2910 1705c-745,-744 -1773,-1205 -2910,-1205 -1136,0 -2164,461 -2909,1205 -744,745 -1205,1773 -1205,2909 0,1137 461,2165 1205,2910 745,744 1773,1205 2909,1205 1137,0 2165,-461 2910,-1205 744,-745 1205,-1773 1205,-2910 0,-1136 -461,-2164 -1205,-2909z"/>
 </g>
</svg>
