<?xml version="1.0" encoding="UTF-8"?>
<!DOCTYPE svg PUBLIC "-//W3C//DTD SVG 1.1//EN" "http://www.w3.org/Graphics/SVG/1.1/DTD/svg11.dtd">
<!-- Creator: CorelDRAW X8 -->
<svg xmlns="http://www.w3.org/2000/svg" xml:space="preserve" width="92.287mm" height="92.287mm" version="1.1" style="shape-rendering:geometricPrecision; text-rendering:geometricPrecision; image-rendering:optimizeQuality; fill-rule:evenodd; clip-rule:evenodd"
viewBox="0 0 9229 9229"
 xmlns:xlink="http://www.w3.org/1999/xlink">
 <defs>
  <style type="text/css">
   <![CDATA[
    .fil0 {fill:black}
   ]]>
  </style>
 </defs>
 <g id="Слой_x0020_1">
  <metadata id="CorelCorpID_0Corel-Layer"/>
  <path class="fil0" d="M4614 0c2549,0 4615,2066 4615,4614 0,2549 -2066,4615 -4615,4615 -2548,0 -4614,-2066 -4614,-4615 0,-2548 2066,-4614 4614,-4614zm2910 1705c-745,-744 -1773,-1205 -2910,-1205 -1136,0 -2164,461 -2909,1205 -744,745 -1205,1773 -1205,2909 0,1137 461,2165 1205,2910 745,744 1773,1205 2909,1205 1137,0 2165,-461 2910,-1205 744,-745 1205,-1773 1205,-2910 0,-1136 -461,-2164 -1205,-2909zm-2671 2325l843 38c0,5 1,9 2,14l87 442 -1292 -123c-26,-2 -48,18 -50,46 -2,27 16,52 42,54l1320 125 362 1839c8,40 45,66 82,58 37,-9 61,-49 53,-89l-357 -1816 0 0 1484 -455 479 1531c12,39 52,60 88,47 36,-14 55,-56 43,-96l-581 -1854 536 -109 0 -127 -3273 106 132 369zm985 44l183 9 1300 -265 78 250 -1474 451 -87 -445zm-1347 1729l1186 -269 -74 -383 -728 63 -254 -29c0,3 0,6 -1,9l-129 609zm-2681 -520l2538 527 136 -641 -2563 -293 -111 407zm2517 625l-2543 -528 -122 446c-8,33 -40,52 -71,43 -30,-10 -48,-45 -39,-78l252 -928 -416 -48 0 -103 394 -22 -283 -684 -157 -6 -112 -212 55 -23 114 0 -33 -79 -153 1 -111 -207 55 -26 111 -5c-9,-25 1,-54 24,-65 23,-11 50,0 61,25l14 35 2478 -115 -5 -12c-9,-25 2,-55 25,-65 24,-11 51,1 60,27l18 45 577 -27 119 331 -66 42 -497 3 31 82 572 -3 121 336 -66 40 -491 -19 272 712 1305 105 39 203 -117 10 157 817c8,41 -16,81 -54,89 -37,9 -74,-17 -81,-58l-68 -355 -1227 278 -143 676c-9,41 -46,66 -83,57 -37,-9 -61,-50 -52,-90l136 -645zm-2446 -1223l556 -31 1975 159 -270 -707 -2541 -96 280 675zm-414 -999l33 78 2508 -9 -31 -82 -2510 13zm4585 1258l27 167 365 -32 0 -103 -392 -32z"/>
 </g>
</svg>
