<?xml version="1.0" encoding="UTF-8"?>
<!DOCTYPE svg PUBLIC "-//W3C//DTD SVG 1.1//EN" "http://www.w3.org/Graphics/SVG/1.1/DTD/svg11.dtd">
<!-- Creator: CorelDRAW X8 -->
<svg xmlns="http://www.w3.org/2000/svg" xml:space="preserve" width="92.287mm" height="92.287mm" version="1.1" style="shape-rendering:geometricPrecision; text-rendering:geometricPrecision; image-rendering:optimizeQuality; fill-rule:evenodd; clip-rule:evenodd"
viewBox="0 0 9229 9229"
 xmlns:xlink="http://www.w3.org/1999/xlink">
 <defs>
  <style type="text/css">
   <![CDATA[
    .fil0 {fill:black}
   ]]>
  </style>
 </defs>
 <g id="Слой_x0020_1">
  <metadata id="CorelCorpID_0Corel-Layer"/>
  <g>
   <path class="fil0" d="M4614 0c2549,0 4615,2066 4615,4614 0,2549 -2066,4615 -4615,4615 -2548,0 -4614,-2066 -4614,-4615 0,-2548 2066,-4614 4614,-4614zm2910 1705c-745,-744 -1773,-1205 -2910,-1205 -1136,0 -2164,461 -2909,1205 -744,745 -1205,1773 -1205,2909 0,1137 461,2165 1205,2910 745,744 1773,1205 2909,1205 1137,0 2165,-461 2910,-1205 744,-745 1205,-1773 1205,-2910 0,-1136 -461,-2164 -1205,-2909zm-1902 3620c-79,0 -144,65 -144,144 0,80 65,145 144,145 80,0 145,-65 145,-145 0,-79 -65,-144 -145,-144zm-1997 0c-79,0 -144,65 -144,144 0,80 65,145 144,145 80,0 145,-65 145,-145 0,-79 -65,-144 -145,-144zm-290 760l-113 0 0 -623c0,-148 89,-276 216,-333l353 -513c69,-100 103,-180 246,-180l1174 0c143,0 177,79 246,180l362 528c112,62 188,182 188,318l0 623 -111 0 0 334c0,168 -285,169 -285,0l0 -334 -1991 0 0 334c0,168 -285,169 -285,0l0 -334zm1548 -987c37,-114 144,-193 265,-193 121,0 228,78 265,193l133 0 -254 -369c-17,-26 -52,-93 -81,-93l-1174 0c-29,0 -64,67 -81,93l-254 369 1181 0zm109 0l313 0c-31,-57 -91,-93 -157,-93 -66,0 -126,36 -156,93zm344 -2438l127 -337c-254,-77 -523,-121 -801,-125l0 363c235,4 461,39 674,99zm-178 469l125 -328c-196,-55 -404,-86 -620,-90l0 342c173,4 339,31 495,76zm825 0l-230 298c100,77 191,165 269,260l377 -173c-117,-145 -257,-275 -416,-385zm310 -401l-218 282c178,126 335,274 464,439l310 -143 0 -69c-162,-193 -349,-364 -556,-509zm-301 226l219 -282c-202,-132 -421,-239 -653,-319l-127 336c172,57 334,130 484,218 26,15 52,31 77,47zm-320 415l228 -296c-20,-13 -40,-25 -61,-37 -142,-84 -297,-153 -461,-207l-124 330c114,40 223,91 324,150 32,19 63,39 94,60zm-1683 -581l124 329c143,-38 294,-60 450,-64l0 -342c-199,4 -391,30 -574,77zm-181 -479l128 338c199,-52 409,-82 627,-86l-1 -363c-261,4 -514,43 -754,111zm-448 743l228 295c21,-14 41,-27 63,-39 113,-67 236,-122 366,-163l-124 -330c-180,54 -349,128 -503,219 -10,6 -20,12 -30,18zm-311 -403l219 284c15,-10 31,-19 46,-28 162,-95 339,-173 526,-230l-127 -337c-236,76 -459,181 -664,311zm135 338l-219 -283c-215,147 -409,322 -578,519l0 34 321 166c133,-165 293,-312 476,-436zm322 416l-230 -297c-165,110 -311,241 -433,387l366 190c85,-104 185,-198 297,-280zm-1926 793c-10,26 -38,39 -64,30 -26,-10 -40,-39 -30,-64 252,-683 687,-1264 1241,-1671 538,-395 1187,-626 1885,-626 701,0 1352,233 1891,631 554,409 990,993 1240,1679 9,26 -4,54 -30,64 -26,9 -55,-4 -64,-30 -243,-668 -667,-1236 -1206,-1633 -522,-386 -1152,-611 -1831,-611 -677,0 -1305,224 -1826,607 -538,395 -961,960 -1206,1624zm1678 1109c-7,3 -16,6 -24,6 -28,0 -50,-23 -50,-50l0 -1373c-30,47 -57,96 -81,147 -11,25 -41,36 -66,25 -25,-12 -36,-42 -24,-67 37,-80 82,-157 134,-230l-315 -163 0 2030c0,41 -34,75 -75,75 -42,0 -75,-34 -75,-75l0 -1911c-35,56 -66,114 -93,174 -18,38 -62,54 -100,37 -37,-17 -53,-62 -36,-99 53,-115 118,-225 193,-328l-259 -134 0 2805c0,56 -45,100 -100,100 -55,0 -100,-44 -100,-100l0 -2689c-116,172 -214,356 -292,550 -21,52 -79,76 -130,56 -51,-21 -76,-79 -55,-130 234,-584 639,-1081 1153,-1429 499,-337 1101,-535 1749,-535 650,0 1254,199 1754,539 246,167 467,368 656,597 3,3 6,7 9,11 203,247 368,526 488,829 20,51 -5,109 -56,129 -51,20 -109,-5 -129,-56 -76,-192 -172,-374 -285,-543l0 2671c0,56 -44,100 -100,100 -55,0 -100,-44 -100,-100l0 -2758 -249 115c68,97 127,200 176,307 17,37 0,82 -37,99 -38,17 -82,1 -99,-37 -23,-51 -49,-101 -77,-149l0 1879c0,41 -34,75 -75,75 -42,0 -75,-34 -75,-75l0 -2013 -330 152c52,73 96,149 133,230 11,25 0,54 -25,66 -25,11 -54,0 -66,-25 -20,-44 -43,-87 -68,-129l0 1350c0,27 -22,50 -50,50 -28,0 -50,-23 -50,-50l0 -1495c-115,-145 -261,-271 -429,-371 -261,-153 -575,-243 -915,-243 -338,0 -652,89 -912,242 -163,95 -304,216 -417,354l0 1512 -26 45z"/>
  </g>
 </g>
</svg>
