<?xml version="1.0" encoding="UTF-8"?>
<!DOCTYPE svg PUBLIC "-//W3C//DTD SVG 1.1//EN" "http://www.w3.org/Graphics/SVG/1.1/DTD/svg11.dtd">
<!-- Creator: CorelDRAW X8 -->
<svg xmlns="http://www.w3.org/2000/svg" xml:space="preserve" width="92.287mm" height="92.287mm" version="1.1" style="shape-rendering:geometricPrecision; text-rendering:geometricPrecision; image-rendering:optimizeQuality; fill-rule:evenodd; clip-rule:evenodd"
viewBox="0 0 9229 9229"
 xmlns:xlink="http://www.w3.org/1999/xlink">
 <defs>
  <style type="text/css">
   <![CDATA[
    .str0 {stroke:black;stroke-width:7.62}
    .fil0 {fill:black}
   ]]>
  </style>
 </defs>
 <g id="Слой_x0020_1">
  <metadata id="CorelCorpID_0Corel-Layer"/>
  <path class="fil0 str0" d="M2647 4834l460 0 0 -1519 -460 0 0 1519zm2802 -2480c0,-28 22,-50 50,-50 27,0 50,22 50,50l0 811 477 0c-19,-433 -204,-824 -492,-1112 -305,-305 -725,-494 -1187,-494l-19 0c-462,0 -883,189 -1187,494 -289,288 -473,679 -493,1112l459 0 0 -811c0,-28 22,-50 50,-50 28,0 50,22 50,50l0 811 485 0 0 -1154c0,-27 23,-50 50,-50 28,0 50,23 50,50l0 1154 486 0 0 -1367c0,-27 22,-50 50,-50 27,0 50,23 50,50l0 1367 485 0 0 -1154c0,-27 23,-50 50,-50 28,0 50,23 50,50l0 1154 486 0 0 -811zm100 961l0 1103c0,28 -23,50 -50,50 -28,0 -50,-22 -50,-50l0 -1103 -486 0 0 1103c0,28 -22,50 -50,50 -27,0 -50,-22 -50,-50l0 -1103 -485 0 0 1519 200 0c41,0 75,33 75,75 0,41 -34,75 -75,75l-200 0 0 1719 177 0c41,0 75,34 75,75 0,42 -34,75 -75,75l-2058 0 0 -1944 0 -1669c0,-504 206,-962 537,-1293 332,-332 790,-538 1294,-538l19 0c503,0 961,206 1293,538 332,331 538,789 538,1293l0 1178c0,41 -34,75 -75,75 -41,0 -75,-34 -75,-75l0 -1103 -479 0zm-2342 1519l485 0 0 -1519 -485 0 0 1519zm0 150l0 1719 485 0 0 -1719 -485 0zm-100 1719l0 -1719 -460 0 0 1719 460 0zm685 -1869l486 0 0 -1519 -486 0 0 1519zm0 150l0 1719 486 0 0 -1719 -486 0zm3266 175l-1679 155 0 917 1679 -665 0 -407zm292 -408l-265 0 0 115 187 -7 -1 467c1,1 1,2 0,3 0,151 0,301 1,452l-187 91 0 107 265 -138 0 -1090zm-340 0l-1441 0 0 169 1441 -51 0 -118zm-1516 0l-614 0 0 2374 614 -319 0 -154 -423 208 0 -1922 36 -2 387 -14 0 -171zm75 2016l1441 -749 0 -109c-481,236 -961,471 -1441,707l0 151zm-764 -2166l2695 0 0 1331 -415 216 0 207c0,21 -17,37 -38,37 -21,0 -37,-16 -37,-37l0 -168c-481,250 -961,499 -1441,749l0 296c0,21 -17,37 -38,37 -21,0 -37,-16 -37,-37l0 -257 -764 397 0 -2771 75 0zm2392 336l-1662 59c-1,0 -2,0 -4,0l-2 0 -383 14 0 779 158 -36 0 -507 34 -3 1795 -166 0 232 64 -12 0 -360zm-2051 928l0 875 2051 -1006 0 -361 -64 13 0 231c-609,242 -1219,483 -1829,725l0 -512 -158 35zm2378 -4160c-745,-744 -1773,-1205 -2910,-1205 -1136,0 -2164,461 -2909,1205 -744,745 -1205,1773 -1205,2909 0,1137 461,2165 1205,2910 745,744 1773,1205 2909,1205 1137,0 2165,-461 2910,-1205 744,-745 1205,-1773 1205,-2910 0,-1136 -461,-2164 -1205,-2909zm-2910 -1705c2549,0 4615,2066 4615,4614 0,2549 -2066,4615 -4615,4615 -2548,0 -4614,-2066 -4614,-4615 0,-2548 2066,-4614 4614,-4614z"/>
 </g>
</svg>
