<svg xmlns="http://www.w3.org/2000/svg" viewBox="0 0 150 50"
  <path  class="logo" d="M49 35l-12 -33 6 0 7 20c0,2 1,4 2,6 0,-1 1,-3 2,-6l7 -20 6 0 -13 33 -5 0zm22 0l0 -33 5 0 0 5c1,-2 3,-3 4,-4 2,-1 4,-1 6,-1 3,0 5,0 6,1 2,1 3,3 3,4 3,-3 6,-5 10,-5 4,0 6,1 8,2 2,2 2,5 2,9l0 22 -5 0 0 -21c0,-2 0,-3 -1,-4 0,-1 -1,-2 -2,-3 0,0 -2,-1 -3,-1 -2,0 -4,1 -6,3 -1,1 -2,4 -2,7l0 19 -5 0 0 -21c0,-3 -1,-5 -2,-6 -1,-1 -2,-2 -4,-2 -2,0 -3,1 -4,2 -2,0 -3,2 -3,3 -1,2 -1,4 -1,7l0 17 -6 0zm52 3l5 0c0,2 1,3 2,4 1,1 3,1 5,1 3,0 5,0 6,-1 2,-1 3,-3 3,-4 0,-1 0,-4 0,-7 -2,2 -5,4 -9,4 -4,0 -7,-2 -10,-5 -2,-3 -4,-7 -4,-12 0,-3 1,-5 2,-8 1,-3 3,-5 5,-6 2,-2 5,-2 7,-2 4,0 7,1 10,4l0 -4 5 0 0 28c0,5 -1,9 -2,11 -1,2 -2,4 -4,5 -3,1 -5,2 -9,2 -4,0 -7,-1 -9,-3 -2,-1 -4,-4 -3,-7zm4 -20c0,4 1,7 3,9 1,2 3,3 6,3 2,0 5,-1 6,-3 2,-2 3,-5 3,-9 0,-4 -1,-7 -3,-9 -2,-2 -4,-3 -6,-3 -3,0 -5,1 -6,3 -2,2 -3,5 -3,9zm-56 32l0 -9 1 0 0 1c1,0 1,-1 1,-1 1,0 1,0 2,0 1,0 1,0 2,0 0,0 0,1 1,1 0,-1 1,-1 2,-1 1,0 2,0 3,0 0,1 0,2 0,3l0 6 -1 0 0 -6c0,0 0,-1 0,-1 0,0 -1,-1 -1,-1 0,0 -1,0 -1,0 -1,0 -1,0 -1,1 -1,0 -1,1 -1,2l0 5 -2 0 0 -6c0,-1 0,-1 0,-2 0,0 -1,0 -1,0 -1,0 -1,0 -1,0 -1,0 -1,1 -1,1 0,1 -1,1 -1,2l0 5 -1 0zm21 -3l1 0c0,1 0,2 -1,2 -1,1 -2,1 -3,1 -1,0 -2,0 -3,-1 -1,-1 -1,-2 -1,-4 0,-1 0,-2 1,-3 1,-1 2,-1 3,-1 2,0 3,0 3,1 1,1 1,2 1,3 0,0 0,1 0,1l-6 0c0,1 0,1 1,2 0,1 1,1 1,1 1,0 1,0 2,-1 0,0 1,0 1,-1zm-5 -3l5 0c0,0 0,-1 -1,-1 0,-1 -1,-1 -2,-1 0,0 -1,0 -1,1 -1,0 -1,1 -1,1zm12 5l0 1c-1,0 -1,0 -1,0 -1,0 -1,0 -2,0 0,0 0,-1 0,-1 0,0 0,-1 0,-2l0 -5 -2 0 0 -1 2 0 0 -2 1 -1 0 3 2 0 0 1 -2 0 0 5c0,1 0,1 0,1 0,0 0,0 1,0 0,1 0,1 0,1 0,0 0,0 1,0zm7 0c0,0 -1,1 -1,1 -1,0 -2,0 -2,0 -1,0 -2,0 -2,-1 -1,0 -1,-1 -1,-2 0,0 0,0 0,-1 0,0 0,0 1,-1 0,0 1,0 1,0 0,0 1,0 1,0 2,-1 2,-1 3,-1 0,0 0,0 0,0 0,-1 0,-1 0,-2 -1,0 -1,0 -2,0 -1,0 -1,0 -2,0 0,0 0,1 -1,2l-1 -1c0,0 0,-1 1,-1 0,-1 0,-1 1,-1 1,0 1,0 2,0 1,0 2,0 2,0 0,0 1,0 1,1 0,0 0,0 1,1 0,0 0,0 0,1l0 2c0,1 0,2 0,3 0,0 0,1 0,1l-1 0c-1,0 -1,-1 -1,-1zm0 -4c0,1 -1,1 -2,1 -1,0 -2,0 -2,0 0,0 0,0 0,1 -1,0 -1,0 -1,0 0,1 1,1 1,1 0,1 1,1 1,1 1,0 1,0 2,-1 0,0 1,0 1,-1 0,0 0,0 0,-1l0 -1zm4 5l0 -13 2 0 0 13 -2 0zm4 0l0 -13 1 0 0 13 -1 0zm-89 -49c-7,0 -12,3 -17,7 -4,5 -7,10 -7,17 0,6 3,12 7,16 5,5 10,7 17,7l42 0 0 2 -42 0c-7,0 -13,-3 -18,-8 -4,-4 -7,-10 -7,-17 0,-7 3,-13 7,-18 5,-4 11,-7 18,-7l0 1zm3 7c-6,0 -10,2 -13,5 -4,3 -6,7 -6,11 0,5 3,9 6,12 4,3 9,5 14,5l39 0 0 1 -39 0c-6,0 -11,-2 -15,-5 -4,-3 -6,-8 -6,-13 0,-5 2,-9 6,-12 3,-3 8,-5 14,-6l0 2zm3 6l10 21 -11 0c-3,0 -7,-1 -9,-3 -2,-2 -4,-5 -4,-8 0,-3 2,-5 4,-7 2,-2 6,-3 9,-3l1 0 0 0zm8 20l-9 -19c-3,0 -6,1 -8,3l0 0c-2,2 -3,4 -3,6 0,3 1,5 3,7 2,2 5,3 8,3l9 0z"/>
</svg>
