<?xml version="1.0" encoding="utf-8"?>
<svg xmlns="http://www.w3.org/2000/svg" xmlns:xlink="http://www.w3.org/1999/xlink" x="0px" y="0px"
	 viewBox="0 0 261.6 261.6">
<g>
	<path class="st0" d="M130.8,0C203,0,261.6,58.6,261.6,130.8c0,72.3-58.6,130.8-130.8,130.8C58.6,261.6,0,203,0,130.8
		C0,58.6,58.6,0,130.8,0L130.8,0z M213.3,48.3c-21.1-21.1-50.3-34.2-82.5-34.2c-32.2,0-61.3,13.1-82.5,34.2
		c-21.1,21.1-34.2,50.3-34.2,82.5c0,32.2,13.1,61.4,34.2,82.5c21.1,21.1,50.3,34.2,82.5,34.2c32.2,0,61.4-13.1,82.5-34.2
		c21.1-21.1,34.2-50.3,34.2-82.5C247.4,98.6,234.4,69.4,213.3,48.3L213.3,48.3z M161.7,99h-24.7V138h24.7V99L161.7,99z M68.4,138H93
		V99H68.9l-0.5,0.4V138L68.4,138z M88.8,147.8h-8.1h-8V159v11.2h8h8.1V159V147.8L88.8,147.8z M93,159.8h-2.8v11.9h-8.8v3.4H93V159.8
		L93,159.8L93,159.8z M90.2,158.3H93v-16H81.4v4.1h8.8V158.3L90.2,158.3L90.2,158.3z M68.4,158.3h2.9v-11.9H72h8v-4.1H68.4V158.3
		L68.4,158.3L68.4,158.3z M71.3,159.8h-2.9v15.3H80v-3.4h-8.7V159.8L71.3,159.8L71.3,159.8z M158.1,147.8h-8.1h-8V159v11.2h8h8.1
		V159V147.8L158.1,147.8z M161.7,159.8h-2.2v11.9h-8.8v3.4h10.9V159.8L161.7,159.8L161.7,159.8z M159.6,158.3h2.2v-16h-10.9v4.1h8.8
		V158.3L159.6,158.3L159.6,158.3z M137.1,158.3h3.6v-11.9h0.7h8v-4.1h-12.3V158.3L137.1,158.3L137.1,158.3z M140.7,159.8h-3.6v15.3
		h12.3v-3.4h-8.7V159.8L140.7,159.8L140.7,159.8z M188.2,142.3v2.6h13.6v6.6l0.9-0.1v-9.1H188.2L188.2,142.3z M188.2,164.4v2.3
		l14.5-6v-7.9l-0.9,0.1v6.6C197.3,161.1,192.7,162.8,188.2,164.4L188.2,164.4z M187.3,163.2C187.3,163.2,187.3,163.2,187.3,163.2
		l13.2-4.7v-12.2h-12.9h-15v22.2L187.3,163.2L187.3,163.2z M168.8,157.6l2.3-0.3v-12.4h0.7h15v-2.6h-18V157.6L168.8,157.6
		L168.8,157.6z M171.1,158.8l-2.3,0.3v15.7l18-7.5v-2.4l-15.7,5.6V158.8L171.1,158.8L171.1,158.8z M114.6,56.1
		c1.6-1.2,3.8-0.9,5,0.7c0.1,0.2,0.3,0.4,0.4,0.6l99.8,56c1.7,0.9,2.3,3.1,1.3,4.7c-0.8,1.4-2.5,2.1-4,1.7l-8.7-2V168
		c0,1.6-1.3,2.8-2.8,2.8c-1.6,0-2.8-1.2-2.8-2.8v-2.7l-33.4,13.9c-0.2,0.1-0.3,0.1-0.5,0.2v3.5c0,2-1.6,3.5-3.5,3.5
		c-2,0-3.5-1.6-3.5-3.5v-3.5h-24.7v3.5c0,1.2-0.9,2.1-2.1,2.1c-1.2,0-2.1-1-2.1-2.1V99H97.3v83.8c0,1.2-1,2.1-2.1,2.1
		c-1.2,0-2.1-1-2.1-2.1v-3.5H68.4v3.5c0,2-1.6,3.5-3.5,3.5c-2,0-3.5-1.6-3.5-3.5v-78.2l-7.6,5.7c-1.6,1.2-3.8,0.9-5-0.7
		c-1.2-1.6-0.9-3.8,0.7-5L114.6,56.1L114.6,56.1L114.6,56.1z M116.3,63.6L74.6,94.7H158L116.3,63.6L116.3,63.6z M168.8,102.8V138
		h33.9v-21.5l-21.4-4.9c-0.5-0.1-1-0.3-1.5-0.7L168.8,102.8L168.8,102.8L168.8,102.8z"/>
</g>
</svg>
