<?xml version="1.0" encoding="utf-8"?>
<svg xmlns="http://www.w3.org/2000/svg" xmlns:xlink="http://www.w3.org/1999/xlink" x="0px" y="0px" viewBox="0 0 261.6 261.6">
<g>
	<path class="st0" d="M130.8,0C203,0,261.6,58.6,261.6,130.8c0,72.3-58.6,130.8-130.8,130.8C58.6,261.6,0,203,0,130.8
		C0,58.6,58.6,0,130.8,0L130.8,0z M213.3,48.3c-21.1-21.1-50.3-34.2-82.5-34.2c-32.2,0-61.3,13.1-82.5,34.2
		c-21.1,21.1-34.2,50.3-34.2,82.5c0,32.2,13.1,61.4,34.2,82.5c21.1,21.1,50.3,34.2,82.5,34.2c32.2,0,61.4-13.1,82.5-34.2
		c21.1-21.1,34.2-50.3,34.2-82.5C247.4,98.6,234.4,69.4,213.3,48.3L213.3,48.3z M179.6,135.2l22.8,0.4l-2.5,3.5l-23.5-0.5
		L179.6,135.2l0-6L179.6,135.2L179.6,135.2z M85.1,56l-33.4,5.3l-3.1,0.5L49,73.2l19.2,3.7l71.9,58.9l2.5,0.1l17.7-0.9l0,0l7.2,0.1
		l0.5,0.5l-55.8,60.8l-9.2,3l0.2,11.4l3.6,0.7l10.7-4.1l3.3-3.9l24.9,4l0.1,11.2l4.3,0.8l9.4-4.9l51.8-77.2l12.8-1.2l0.1-7.5
		l-51.9-0.2l0,0l-63.7-66.8l-19.8-5.9L85.1,56L85.1,56L85.1,56z M74,67.2l11.4-1.6l0.1,2.8l7.3,1.8l-13.4,1.7L74,67.2L74,67.2
		L74,67.2z M143.6,128.3L143.6,128.3l-4.3-3.8l17.4-0.1l3.8,3.7l0,0h-0.1L143.6,128.3L143.6,128.3z M138.3,123.6l-4.5-4l17.7-0.2
		l4.2,4.1L138.3,123.6L138.3,123.6L138.3,123.6z M132.5,118.6l-4.6-4.1l18.1-0.4l4.3,4.2L132.5,118.6L132.5,118.6L132.5,118.6z
		 M126.4,113.2l-4.7-4.1l18.5-0.7l4.4,4.3L126.4,113.2L126.4,113.2z M119.9,107.5l-4.8-4.2l18.8-0.9l4.5,4.4L119.9,107.5
		L119.9,107.5L119.9,107.5z M112.9,101.4l-4.9-4.3l19.2-1.2l4.6,4.5L112.9,101.4L112.9,101.4L112.9,101.4z M105.4,94.8l-5-4.4
		l19.6-1.5l4.7,4.6L105.4,94.8L105.4,94.8z M97.3,87.7l-5.1-4.5l20-1.9l4.8,4.7L97.3,87.7L97.3,87.7z M88.7,80.1l-5.2-4.6l20.4-2.4
		l5,4.8L88.7,80.1L88.7,80.1z M175.3,139.9l23.6,0.6l-3.2,4.4l-24-0.8L175.3,139.9L175.3,139.9L175.3,139.9z M170.3,145.6l24.2,0.9
		l-3.3,4.5l-24.6-1.1L170.3,145.6L170.3,145.6L170.3,145.6z M165,151.8l24.7,1.2l-3.3,4.6l-25.1-1.4L165,151.8L165,151.8z
		 M159.4,158.4l25.3,1.6l-3.4,4.7l-25.8-1.8L159.4,158.4L159.4,158.4z M153.3,165.4l26,2l-3.5,4.8l-26.4-2.3L153.3,165.4
		L153.3,165.4z M146.9,172.9l26.6,2.5l-3.6,4.9l-27-2.7L146.9,172.9L146.9,172.9z M139.9,181l27.3,3l-3.7,5.1l-27.7-3.3L139.9,181
		L139.9,181z M132.5,189.7l28,3.6l-3.8,5.2l-28.4-4L132.5,189.7L132.5,189.7z M172.6,130.5l1.9-2.1l2.8,0.1l-2.8,0L172.6,130.5
		L172.6,130.5z M172.3,128.2l0.3,0.3l0,0L172.3,128.2L172.3,128.2z"/>
</g>
</svg>
