<?xml version="1.0" encoding="utf-8"?>
<svg  xmlns="http://www.w3.org/2000/svg" xmlns:xlink="http://www.w3.org/1999/xlink" x="0px" y="0px" viewBox="0 0 261.6 261.6" >
<g>
	<path class="st0" d="M38.7,95h24.4v6.7H38.7V95L38.7,95z M198.5,95h24.4v6.7h-24.4V95L198.5,95z M178.8,108c1.7,0,3.1,1.4,3.1,3.1
		c0,1.7-1.4,3.1-3.1,3.1c-1.7,0-3.1-1.4-3.1-3.1C175.7,109.4,177.1,108,178.8,108L178.8,108z M165.3,108c1.7,0,3.1,1.4,3.1,3.1
		c0,1.7-1.4,3.1-3.1,3.1c-1.7,0-3.1-1.4-3.1-3.1C162.2,109.4,163.6,108,165.3,108L165.3,108z M151.8,108c1.7,0,3.1,1.4,3.1,3.1
		c0,1.7-1.4,3.1-3.1,3.1c-1.7,0-3.1-1.4-3.1-3.1C148.7,109.4,150.1,108,151.8,108L151.8,108z M138.3,108c1.7,0,3.1,1.4,3.1,3.1
		c0,1.7-1.4,3.1-3.1,3.1c-1.7,0-3.1-1.4-3.1-3.1C135.2,109.4,136.6,108,138.3,108L138.3,108z M124.8,108c1.7,0,3.1,1.4,3.1,3.1
		c0,1.7-1.4,3.1-3.1,3.1c-1.7,0-3.1-1.4-3.1-3.1C121.7,109.4,123.1,108,124.8,108L124.8,108z M111.3,108c1.7,0,3.1,1.4,3.1,3.1
		c0,1.7-1.4,3.1-3.1,3.1c-1.7,0-3.1-1.4-3.1-3.1C108.2,109.4,109.6,108,111.3,108L111.3,108z M97.8,108c1.7,0,3.1,1.4,3.1,3.1
		c0,1.7-1.4,3.1-3.1,3.1c-1.7,0-3.1-1.4-3.1-3.1C94.7,109.4,96.1,108,97.8,108L97.8,108z M84.4,108c1.7,0,3.1,1.4,3.1,3.1
		c0,1.7-1.4,3.1-3.1,3.1c-1.7,0-3.1-1.4-3.1-3.1C81.2,109.4,82.6,108,84.4,108L84.4,108z M187.6,121.5H70.8v27.8h116.8V121.5
		L187.6,121.5z M52.7,75.3h25.6v1.8h3.9v-1.8H93v1.8h3.9v-1.8h10.8v1.8h3.9v-1.8h10.8v1.8h3.9v-1.8H137v1.8h3.9v-1.8h10.8v1.8h3.9
		v-1.8h10.8v1.8h3.9v-1.8h10.8v1.8h3.9v-1.8h25.6v19h-11.9h-0.7v8.2h12.6v15.1c0,2.2-1.8,4-4,4h-13.2v64.9h-5.7v-31.4H70.8v31.4
		h-5.7v-64.9h-8.5c-2.2,0-3.9-1.8-3.9-4v-15.1h11.1v-8.2H52.7L52.7,75.3L52.7,75.3L52.7,75.3z M130.8,0
		C203,0,261.6,58.6,261.6,130.8c0,72.3-58.6,130.8-130.8,130.8C58.6,261.6,0,203,0,130.8C0,58.6,58.6,0,130.8,0L130.8,0z
		 M213.3,48.3c-21.1-21.1-50.3-34.2-82.5-34.2c-32.2,0-61.3,13.1-82.5,34.2c-21.1,21.1-34.2,50.3-34.2,82.5
		c0,32.2,13.1,61.4,34.2,82.5c21.1,21.1,50.3,34.2,82.5,34.2c32.2,0,61.4-13.1,82.5-34.2c21.1-21.1,34.2-50.3,34.2-82.5
		C247.4,98.6,234.4,69.4,213.3,48.3L213.3,48.3z"/>
</g>
</svg>
