<?xml version="1.0" encoding="utf-8"?>
<svg  xmlns="http://www.w3.org/2000/svg" xmlns:xlink="http://www.w3.org/1999/xlink" x="0px" y="0px" viewBox="0 0 261.6 261.6" >
<g>
	<path class="st0" d="M130.8,0C203,0,261.6,58.6,261.6,130.8c0,72.3-58.6,130.8-130.8,130.8C58.6,261.6,0,203,0,130.8
		C0,58.6,58.6,0,130.8,0L130.8,0z M213.3,48.3c-21.1-21.1-50.3-34.2-82.5-34.2c-32.2,0-61.3,13.1-82.5,34.2
		c-21.1,21.1-34.2,50.3-34.2,82.5c0,32.2,13.1,61.4,34.2,82.5c21.1,21.1,50.3,34.2,82.5,34.2c32.2,0,61.4-13.1,82.5-34.2
		c21.1-21.1,34.2-50.3,34.2-82.5C247.4,98.6,234.4,69.4,213.3,48.3L213.3,48.3z M159.4,150.9c-2.2,0-4.1,1.8-4.1,4.1
		c0,2.3,1.8,4.1,4.1,4.1c2.3,0,4.1-1.8,4.1-4.1C163.5,152.8,161.6,150.9,159.4,150.9L159.4,150.9z M102.8,150.9
		c-2.2,0-4.1,1.8-4.1,4.1c0,2.3,1.8,4.1,4.1,4.1c2.3,0,4.1-1.8,4.1-4.1C106.9,152.8,105,150.9,102.8,150.9L102.8,150.9z M94.5,172.5
		h-3.2v-17.7c0-4.2,2.5-7.8,6.1-9.4l10-14.5c2-2.8,2.9-5.1,7-5.1h33.3c4.1,0,5,2.2,7,5.1l10.3,15c3.2,1.8,5.3,5.2,5.3,9v17.7h-3.1
		v9.5c0,4.8-8.1,4.8-8.1,0v-9.5h-56.4v9.5c0,4.8-8.1,4.8-8.1,0L94.5,172.5L94.5,172.5L94.5,172.5z M138.4,144.5
		c1-3.2,4.1-5.5,7.5-5.5s6.5,2.2,7.5,5.5h3.8L150,134c-0.5-0.7-1.5-2.6-2.3-2.6h-33.3c-0.8,0-1.8,1.9-2.3,2.6l-7.2,10.5H138.4
		L138.4,144.5z M141.5,144.5h8.9c-0.9-1.6-2.6-2.6-4.5-2.6C144.1,141.9,142.4,142.9,141.5,144.5L141.5,144.5L141.5,144.5z
		 M151.3,75.4l3.6-9.6c-7.2-2.2-14.8-3.4-22.7-3.5v10.3C138.8,72.7,145.2,73.7,151.3,75.4L151.3,75.4L151.3,75.4z M146.2,88.7
		l3.5-9.3c-5.6-1.6-11.5-2.4-17.6-2.6v9.7C137.1,86.7,141.8,87.4,146.2,88.7L146.2,88.7z M169.6,88.7l-6.5,8.4
		c2.8,2.2,5.4,4.7,7.6,7.4l10.7-4.9C178.1,95.5,174.1,91.8,169.6,88.7L169.6,88.7z M178.4,77.3l-6.2,8c5,3.6,9.5,7.8,13.2,12.4
		l8.8-4.1v-2C189.5,86.3,184.2,81.4,178.4,77.3L178.4,77.3z M169.8,83.7l6.2-8c-5.7-3.7-11.9-6.8-18.5-9l-3.6,9.5
		c4.9,1.6,9.5,3.7,13.7,6.2C168.4,82.8,169.1,83.3,169.8,83.7L169.8,83.7L169.8,83.7z M160.8,95.5l6.5-8.4c-0.6-0.4-1.1-0.7-1.7-1
		c-4-2.4-8.4-4.3-13.1-5.9l-3.5,9.4c3.2,1.1,6.3,2.6,9.2,4.3C159,94.3,159.9,94.9,160.8,95.5L160.8,95.5L160.8,95.5z M113.1,79
		l3.5,9.3c4.1-1.1,8.3-1.7,12.8-1.8v-9.7C123.7,77,118.3,77.7,113.1,79L113.1,79L113.1,79z M107.9,65.4l3.6,9.6
		c5.6-1.5,11.6-2.3,17.8-2.4l0-10.3C121.9,62.4,114.7,63.5,107.9,65.4L107.9,65.4z M95.2,86.5l6.5,8.4c0.6-0.4,1.2-0.8,1.8-1.1
		c3.2-1.9,6.7-3.5,10.4-4.6l-3.5-9.4c-5.1,1.5-9.9,3.6-14.3,6.2C95.8,86.2,95.5,86.3,95.2,86.5L95.2,86.5z M86.4,75.1l6.2,8.1
		c0.4-0.3,0.9-0.5,1.3-0.8c4.6-2.7,9.6-4.9,14.9-6.5l-3.6-9.6C98.6,68.4,92.2,71.4,86.4,75.1L86.4,75.1L86.4,75.1z M90.3,84.7
		l-6.2-8c-6.1,4.2-11.6,9.1-16.4,14.7v1l9.1,4.7C80.5,92.3,85.1,88.2,90.3,84.7L90.3,84.7L90.3,84.7z M99.4,96.5L92.9,88
		c-4.7,3.1-8.8,6.8-12.3,11l10.4,5.4C93.4,101.4,96.2,98.8,99.4,96.5L99.4,96.5z M44.8,118.9c-0.3,0.7-1.1,1.1-1.8,0.9
		c-0.7-0.3-1.1-1.1-0.9-1.8c7.1-19.4,19.5-35.8,35.2-47.4c15.3-11.2,33.6-17.7,53.4-17.7c19.9,0,38.3,6.6,53.6,17.9
		c15.7,11.6,28.1,28.1,35.1,47.6c0.3,0.7-0.1,1.5-0.9,1.8c-0.7,0.3-1.6-0.1-1.8-0.9c-6.9-18.9-18.9-35-34.2-46.3
		c-14.8-10.9-32.7-17.3-51.9-17.3c-19.2,0-37,6.3-51.8,17.2C63.7,84.1,51.7,100.1,44.8,118.9L44.8,118.9z M92.3,150.4
		c-0.2,0.1-0.5,0.2-0.7,0.2c-0.8,0-1.4-0.7-1.4-1.4v-38.9c-0.9,1.3-1.6,2.7-2.3,4.2c-0.3,0.7-1.2,1-1.9,0.7c-0.7-0.3-1-1.2-0.7-1.9
		c1-2.3,2.3-4.5,3.8-6.5l-8.9-4.6v57.5c0,1.2-1,2.1-2.1,2.1c-1.2,0-2.1-1-2.1-2.1v-54.2c-1,1.6-1.9,3.2-2.6,4.9
		c-0.5,1.1-1.8,1.5-2.8,1c-1-0.5-1.5-1.8-1-2.8c1.5-3.3,3.3-6.4,5.5-9.3l-7.3-3.8V175c0,1.6-1.3,2.8-2.8,2.8S62,176.6,62,175V98.8
		c-3.3,4.9-6.1,10.1-8.3,15.6c-0.6,1.5-2.2,2.2-3.7,1.6c-1.4-0.6-2.2-2.2-1.6-3.7c6.6-16.6,18.1-30.6,32.7-40.5
		c14.1-9.6,31.2-15.2,49.6-15.2c18.4,0,35.5,5.6,49.7,15.3c7,4.7,13.2,10.4,18.6,16.9c0.1,0.1,0.2,0.2,0.3,0.3
		c5.8,7,10.4,14.9,13.8,23.5c0.6,1.4-0.1,3.1-1.6,3.7c-1.4,0.6-3.1-0.1-3.7-1.6c-2.2-5.4-4.9-10.6-8.1-15.4V175
		c0,1.6-1.2,2.8-2.8,2.8c-1.6,0-2.8-1.2-2.8-2.8V96.8l-7.1,3.3c1.9,2.7,3.6,5.7,5,8.7c0.5,1,0,2.3-1,2.8c-1.1,0.5-2.3,0-2.8-1
		c-0.7-1.4-1.4-2.9-2.2-4.2v53.3c0,1.2-1,2.1-2.1,2.1c-1.2,0-2.1-1-2.1-2.1v-57.1l-9.4,4.3c1.5,2.1,2.7,4.2,3.8,6.5
		c0.3,0.7,0,1.5-0.7,1.9c-0.7,0.3-1.5,0-1.9-0.7c-0.6-1.2-1.2-2.5-1.9-3.7v38.3c0,0.8-0.6,1.4-1.4,1.4c-0.8,0-1.4-0.7-1.4-1.4v-42.4
		c-3.3-4.1-7.4-7.7-12.2-10.5c-7.4-4.3-16.3-6.9-25.9-6.9c-9.6,0-18.5,2.5-25.9,6.9c-4.6,2.7-8.6,6.1-11.8,10v42.9L92.3,150.4
		L92.3,150.4L92.3,150.4z"/>
</g>
</svg>
