<?xml version="1.0" encoding="utf-8"?>
<svg  xmlns="http://www.w3.org/2000/svg" xmlns:xlink="http://www.w3.org/1999/xlink" x="0px" y="0px" viewBox="0 0 261.6 261.6" >
<g>
	<path class="st0" d="M75,137h13V94H75V137L75,137z M154.5,66.7c0-0.8,0.6-1.4,1.4-1.4c0.8,0,1.4,0.6,1.4,1.4v23h13.5
		c-0.5-12.3-5.8-23.4-13.9-31.5c-8.6-8.6-20.6-14-33.6-14h-0.5c-13.1,0-25,5.4-33.6,14c-8.2,8.2-13.4,19.2-14,31.5h13v-23
		c0-0.8,0.6-1.4,1.4-1.4s1.4,0.6,1.4,1.4v23h13.7V57c0-0.8,0.7-1.4,1.4-1.4c0.8,0,1.4,0.7,1.4,1.4v32.7h13.8V51
		c0-0.8,0.6-1.4,1.4-1.4c0.8,0,1.4,0.7,1.4,1.4v38.7h13.7V57c0-0.8,0.7-1.4,1.4-1.4c0.8,0,1.4,0.7,1.4,1.4v32.7h13.8L154.5,66.7
		L154.5,66.7L154.5,66.7z M157.3,94v31.3c0,0.8-0.7,1.4-1.4,1.4c-0.8,0-1.4-0.6-1.4-1.4V94h-13.8v31.3c0,0.8-0.6,1.4-1.4,1.4
		c-0.8,0-1.4-0.6-1.4-1.4V94h-13.7V137h5.7c1.2,0,2.1,0.9,2.1,2.1c0,1.2-1,2.1-2.1,2.1h-5.7V190h5c1.2,0,2.1,1,2.1,2.1
		c0,1.2-1,2.1-2.1,2.1H70.8v-55.1V91.8c0-14.3,5.8-27.3,15.2-36.7c9.4-9.4,22.4-15.2,36.7-15.2h0.5c14.3,0,27.2,5.8,36.7,15.2
		c9.4,9.4,15.2,22.4,15.2,36.7v33.4c0,1.2-1,2.1-2.1,2.1s-2.1-1-2.1-2.1V94H157.3L157.3,94z M90.9,137h13.7V94H90.9V137L90.9,137z
		 M90.9,141.3V190h13.7v-48.7H90.9L90.9,141.3z M88.1,190v-48.7H75V190H88.1L88.1,190z M107.5,137h13.8V94h-13.8V137L107.5,137z
		 M107.5,141.3V190h13.8v-48.7H107.5L107.5,141.3z M200.1,146.2l-47.6,4.4v26l47.6-18.8V146.2L200.1,146.2L200.1,146.2z
		 M208.3,134.7h-7.5v3.3l5.3-0.2l0,13.2c0,0,0,0.1,0,0.1c0,4.3,0,8.5,0,12.8l-5.3,2.6v3l7.5-3.9V134.7L208.3,134.7L208.3,134.7z
		 M198.7,134.7h-40.8v4.8l40.8-1.4V134.7L198.7,134.7L198.7,134.7z M155.7,134.7h-17.4V202l17.4-9v-4.4l-12,5.9V140l1-0.1l11-0.4
		V134.7L155.7,134.7z M157.9,191.8l40.8-21.2v-3.1c-13.6,6.7-27.2,13.4-40.8,20V191.8L157.9,191.8z M136.2,130.4h76.4v37.7
		l-11.8,6.1v5.9c0,0.6-0.5,1-1.1,1c-0.6,0-1-0.5-1-1v-4.8c-13.6,7.1-27.2,14.1-40.8,21.2v8.4c0,0.6-0.5,1-1.1,1s-1-0.5-1-1v-7.3
		L134.1,209v-78.5L136.2,130.4L136.2,130.4L136.2,130.4z M204,139.9l-47.1,1.7c0,0-0.1,0-0.1,0h-0.1l-10.9,0.4v22.1l4.5-1v-14.4
		l1-0.1l50.9-4.7v6.6l1.8-0.3L204,139.9L204,139.9L204,139.9z M145.9,166.2V191l58.1-28.5v-10.2l-1.8,0.4v6.5
		c-17.3,6.9-34.6,13.7-51.8,20.6v-14.5L145.9,166.2L145.9,166.2z M213.3,48.3c-21.1-21.1-50.3-34.2-82.5-34.2
		c-32.2,0-61.3,13.1-82.5,34.2c-21.1,21.1-34.2,50.3-34.2,82.5c0,32.2,13.1,61.4,34.2,82.5c21.1,21.1,50.3,34.2,82.5,34.2
		c32.2,0,61.4-13.1,82.5-34.2c21.1-21.1,34.2-50.3,34.2-82.5C247.4,98.6,234.4,69.4,213.3,48.3L213.3,48.3z M130.8,0
		C203,0,261.6,58.6,261.6,130.8c0,72.3-58.6,130.8-130.8,130.8C58.6,261.6,0,203,0,130.8C0,58.6,58.6,0,130.8,0L130.8,0z"/>
</g>
</svg>
