 <svg xmlns="http://www.w3.org/2000/svg" xmlns:xlink="http://www.w3.org/1999/xlink" x="0px" y="0px" viewbox="0 0 200 67" min-width="80">
            <g>
              <path d="M65.4,46.7L49.1,3.6H57l9.2,25.8c1,2.8,1.9,5.7,2.8,8.7c0.7-2.3,1.6-5,2.7-8.2l9.6-26.3h7.5L72.5,46.7H65.4L65.4,46.7z    M95.3,46.7V3.6h6.6v6.1c1.3-2.1,3.2-3.8,5.4-5.1c2.2-1.3,4.8-1.9,7.7-1.9c3.2,0,5.8,0.7,7.9,2c2,1.3,3.5,3.2,4.3,5.5    c3.4-5,7.9-7.5,13.4-7.5c4.3,0,7.6,1.2,9.9,3.5c2.3,2.4,3.5,6,3.5,10.9v29.5h-7.3V19.6c0-2.9-0.2-5-0.7-6.3    c-0.5-1.3-1.3-2.3-2.6-3.1C142,9.4,140.6,9,138.9,9c-3.1,0-5.6,1-7.6,3c-2,2-3,5.2-3,9.7v25h-7.3v-28c0-3.2-0.6-5.7-1.8-7.3    C118,9.8,116,9,113.3,9c-2.1,0-4,0.5-5.7,1.6c-1.7,1.1-3,2.7-3.8,4.7c-0.8,2.1-1.2,5.1-1.2,9v22.3H95.3L95.3,46.7z M163.3,50.3    l7.1,1c0.3,2.2,1.1,3.8,2.5,4.8c1.8,1.3,4.3,2,7.5,2c3.4,0,6-0.7,7.9-2c1.8-1.3,3.1-3.2,3.7-5.7c0.4-1.5,0.6-4.6,0.5-9.3    c-3.2,3.8-7.2,5.6-12,5.6c-5.9,0-10.6-2.1-13.8-6.4c-3.3-4.3-4.9-9.4-4.9-15.3c0-4.1,0.7-7.9,2.2-11.4c1.5-3.5,3.7-6.1,6.5-8    c2.8-1.9,6.2-2.8,10-2.8c5.1,0,9.3,2.1,12.6,6.2V3.6h6.7v37.2c0,6.7-0.7,11.5-2.1,14.2c-1.4,2.8-3.5,5-6.5,6.6    c-3,1.6-6.6,2.4-11,2.4c-5.2,0-9.3-1.1-12.5-3.5C164.7,58.4,163.2,54.9,163.3,50.3L163.3,50.3z M169.3,24.4c0,5.6,1.1,9.7,3.4,12.3    c2.3,2.6,5.1,3.9,8.5,3.9c3.4,0,6.2-1.3,8.5-3.9c2.3-2.6,3.4-6.6,3.4-12.1c0-5.3-1.2-9.2-3.5-11.9c-2.3-2.7-5.2-4-8.5-4    c-3.3,0-6,1.3-8.3,3.9C170.5,15.3,169.3,19.2,169.3,24.4L169.3,24.4z"></path>
              <path d="M94.6,66.6V54.5h1.8v1.7c0.4-0.6,0.9-1.1,1.5-1.4c0.6-0.4,1.3-0.5,2.2-0.5c0.9,0,1.6,0.2,2.2,0.6c0.6,0.4,1,0.9,1.2,1.6    c1-1.4,2.2-2.1,3.8-2.1c1.2,0,2.1,0.3,2.8,1c0.7,0.7,1,1.7,1,3.1v8.3h-2.1V59c0-0.8-0.1-1.4-0.2-1.8c-0.1-0.4-0.4-0.6-0.7-0.9    c-0.4-0.2-0.8-0.3-1.2-0.3c-0.9,0-1.6,0.3-2.1,0.8c-0.6,0.6-0.8,1.5-0.8,2.7v7h-2.1v-7.9c0-0.9-0.2-1.6-0.5-2    c-0.3-0.5-0.9-0.7-1.6-0.7c-0.6,0-1.1,0.2-1.6,0.5c-0.5,0.3-0.8,0.7-1.1,1.3c-0.2,0.6-0.3,1.4-0.3,2.5v6.3H94.6L94.6,66.6z    M122.4,62.7l2.1,0.3c-0.3,1.2-1,2.2-1.9,2.9c-0.9,0.7-2.1,1-3.5,1c-1.8,0-3.2-0.5-4.2-1.6c-1-1.1-1.6-2.6-1.6-4.6    c0-2,0.5-3.6,1.6-4.7c1-1.1,2.4-1.7,4.1-1.7c1.6,0,2.9,0.5,4,1.6c1,1.1,1.5,2.6,1.5,4.6c0,0.1,0,0.3,0,0.5h-9    c0.1,1.3,0.5,2.3,1.1,3c0.7,0.7,1.5,1.1,2.5,1.1c0.8,0,1.4-0.2,1.9-0.6C121.7,64.2,122.1,63.6,122.4,62.7L122.4,62.7z M115.7,59.4    h6.8c-0.1-1-0.4-1.8-0.8-2.3c-0.7-0.8-1.5-1.2-2.5-1.2c-0.9,0-1.7,0.3-2.4,0.9C116.1,57.5,115.7,58.4,115.7,59.4L115.7,59.4z    M131.6,64.8l0.3,1.8c-0.6,0.1-1.1,0.2-1.5,0.2c-0.7,0-1.3-0.1-1.7-0.4c-0.4-0.2-0.7-0.5-0.9-0.9c-0.2-0.4-0.2-1.2-0.2-2.4v-7H126    v-1.6h1.5v-3l2.1-1.2v4.2h2.1v1.6h-2.1v7.1c0,0.6,0,1,0.1,1.1c0.1,0.2,0.2,0.3,0.4,0.4c0.2,0.1,0.4,0.1,0.7,0.1    C130.9,64.9,131.3,64.9,131.6,64.8L131.6,64.8z M141.6,65.1c-0.8,0.6-1.5,1.1-2.2,1.4c-0.7,0.3-1.5,0.4-2.3,0.4    c-1.3,0-2.4-0.3-3.1-1c-0.7-0.6-1.1-1.5-1.1-2.5c0-0.6,0.1-1.1,0.4-1.6c0.3-0.5,0.6-0.9,1.1-1.2c0.4-0.3,0.9-0.5,1.5-0.7    c0.4-0.1,1-0.2,1.8-0.3c1.7-0.2,2.9-0.4,3.7-0.7c0-0.3,0-0.5,0-0.5c0-0.8-0.2-1.4-0.6-1.8c-0.5-0.5-1.3-0.7-2.3-0.7    c-1,0-1.7,0.2-2.1,0.5c-0.5,0.3-0.8,0.9-1,1.8l-2-0.3c0.2-0.9,0.5-1.6,0.9-2.1c0.4-0.5,1-0.9,1.8-1.2c0.8-0.3,1.7-0.4,2.8-0.4    c1,0,1.9,0.1,2.5,0.4c0.6,0.2,1.1,0.5,1.4,0.9c0.3,0.4,0.5,0.8,0.6,1.4c0.1,0.3,0.1,1,0.1,1.9v2.7c0,1.9,0,3.1,0.1,3.6    c0.1,0.5,0.3,1,0.5,1.5H142C141.8,66.2,141.6,65.7,141.6,65.1L141.6,65.1z M141.4,60.6c-0.7,0.3-1.9,0.6-3.4,0.8    c-0.9,0.1-1.5,0.3-1.8,0.4c-0.4,0.2-0.6,0.4-0.8,0.7c-0.2,0.3-0.3,0.6-0.3,1c0,0.5,0.2,1,0.6,1.4c0.4,0.4,1,0.5,1.8,0.5    c0.8,0,1.5-0.2,2.1-0.5c0.6-0.3,1.1-0.8,1.4-1.4c0.2-0.5,0.3-1.1,0.3-2L141.4,60.6L141.4,60.6z M146.6,66.6V49.9h2.1v16.7H146.6    L146.6,66.6z M151.8,66.6V49.9h2.1v16.7H151.8L151.8,66.6z"></path>
              <path d="M33.4,2.4c-8.6,0-16.3,3.5-22,9.1c-5.6,5.6-9.1,13.4-9.1,21.9c0,8.5,3.5,16.3,9.1,21.9c5.6,5.6,13.4,9.1,22,9.1h56.6v2.1    H33.4c-9.1,0-17.5-3.7-23.5-9.7c-6-6-9.8-14.3-9.8-23.4C0.1,24.3,3.8,16,9.9,10c6-6,14.3-9.7,23.5-9.7V2.4L33.4,2.4z"></path>
              <path d="M37.1,11c-7.2,0.2-13.2,2.6-17.5,6.4c-4.3,3.9-6.8,9.4-6.8,15.5c0,6,2.9,11.5,7.7,15.4c4.8,4,11.4,6.5,18.7,6.5h51.6v2.1    H39.2c-7.8,0-14.9-2.7-20-7c-5.2-4.4-8.4-10.4-8.4-17.1c0-6.7,2.7-12.7,7.5-17.1c4.6-4.2,11.1-6.8,18.9-6.9L37.1,11L37.1,11z"></path>
              <path d="M41.3,18.9l13.6,28.5H40.3c-4.7,0-8.9-1.6-12-4.2c-3.1-2.6-5.1-6.3-5.1-10.3c0-4,2-7.7,5.1-10.3c3.1-2.6,7.4-4.2,12-4.2H41    L41.3,18.9L41.3,18.9z M51.5,45.3L39.6,20.4c-3.9,0.1-7.4,1.5-10,3.7c-2.7,2.3-4.3,5.3-4.3,8.7c0,3.4,1.7,6.5,4.3,8.7    c2.7,2.3,6.5,3.7,10.7,3.7H51.5L51.5,45.3z"></path>
            </g>
          </svg>